<svg xmlns="http://www.w3.org/2000/svg" xmlns:xlink="http://www.w3.org/1999/xlink" width="1080" zoomAndPan="magnify" viewBox="0 0 810 809.999993" height="1080" preserveAspectRatio="xMidYMid meet" version="1.2"><g id="024a9a2538"><path style=" stroke:none;fill-rule:nonzero;fill:#ffffff;fill-opacity:1;" d="M 589.84375 332.578125 C 589.84375 329.058594 586.996094 326.214844 583.484375 326.214844 C 579.972656 326.214844 577.121094 329.058594 577.121094 332.578125 C 577.121094 429.988281 497.871094 509.238281 400.457031 509.238281 C 303.046875 509.238281 223.800781 429.996094 223.800781 332.578125 C 223.800781 235.164062 303.050781 155.914062 400.464844 155.914062 C 446.507812 155.914062 490.097656 173.535156 523.226562 205.539062 C 533.570312 215.429688 565.367188 252.914062 540.160156 320.230469 C 517.445312 380.910156 484.9375 382.902344 484.777344 382.914062 C 462.832031 382.914062 444.976562 365.050781 444.976562 343.105469 L 444.976562 308.59375 C 445.070312 305.851562 445.070312 303.148438 444.976562 300.46875 L 444.976562 234.425781 C 444.976562 230.90625 442.125 228.066406 438.613281 228.066406 C 435.101562 228.066406 432.253906 230.90625 432.253906 234.425781 L 432.253906 257.390625 C 426.628906 249.351562 419.382812 243.492188 410.730469 240.398438 C 378.257812 228.785156 338.835938 258.804688 320.996094 308.703125 C 312.671875 331.984375 310.539062 356.011719 314.992188 376.347656 C 319.679688 397.753906 331.082031 412.699219 347.085938 418.417969 C 351.792969 420.101562 356.648438 420.910156 361.558594 420.910156 C 388.949219 420.910156 418.164062 395.757812 434.160156 356.953125 C 440.261719 379.210938 460.625 395.636719 484.867188 395.636719 C 486.535156 395.613281 526.03125 394.246094 552.070312 324.695312 C 580.003906 250.082031 543.773438 207.59375 532.039062 196.371094 C 496.546875 162.078125 449.824219 143.195312 400.457031 143.195312 C 296.027344 143.195312 211.074219 228.152344 211.074219 332.582031 C 211.074219 437.011719 296.027344 521.96875 400.457031 521.96875 C 504.886719 521.96875 589.84375 437.003906 589.84375 332.578125 Z M 351.367188 406.445312 C 339.636719 402.253906 331.132812 390.597656 327.417969 373.632812 C 323.464844 355.59375 325.4375 334.058594 332.96875 312.996094 C 346.1875 276.03125 372.863281 250.640625 396.261719 250.640625 C 399.746094 250.640625 403.160156 251.207031 406.449219 252.378906 C 418.179688 256.570312 426.6875 268.222656 430.402344 285.191406 C 431.382812 289.679688 432 294.390625 432.253906 299.25 L 432.253906 308.695312 C 431.769531 320.691406 429.3125 333.332031 424.839844 345.828125 C 409.917969 387.589844 376.273438 415.34375 351.367188 406.445312 Z M 351.367188 406.445312 "/><path style=" stroke:none;fill-rule:nonzero;fill:#ffffff;fill-opacity:1;" d="M 793.816406 196.632812 C 785.992188 166.671875 765.820312 142.96875 738.480469 131.613281 L 694.285156 113.253906 C 680.824219 107.675781 665.792969 108.222656 651.957031 114.84375 C 638.355469 121.34375 627.535156 132.960938 621.472656 147.542969 L 601.347656 195.972656 C 595.285156 210.550781 594.699219 226.410156 599.679688 240.632812 C 604.75 255.105469 614.960938 266.164062 628.421875 271.761719 C 645.144531 278.707031 655.171875 296.265625 653.96875 316.480469 C 652.472656 341.535156 647.34375 379.464844 631.398438 417.871094 C 615.449219 456.253906 592.179688 486.65625 575.46875 505.398438 C 561.988281 520.511719 542.472656 525.792969 525.753906 518.84375 C 498.203125 507.414062 465.546875 522.777344 452.941406 553.128906 L 432.820312 601.558594 C 420.210938 631.90625 432.355469 665.902344 459.894531 677.347656 L 504.085938 695.710938 C 515.460938 700.433594 527.464844 702.773438 539.542969 702.773438 C 556.496094 702.773438 573.585938 698.15625 589.207031 689.058594 C 632.675781 663.738281 696.386719 604.910156 753.089844 468.429688 C 809.796875 331.960938 806.539062 245.304688 793.816406 196.632812 Z M 741.34375 463.546875 C 685.992188 596.746094 624.578125 653.726562 582.800781 678.058594 C 559.511719 691.632812 532.605469 693.777344 508.972656 683.957031 L 464.777344 665.589844 C 443.714844 656.84375 434.65625 630.304688 444.570312 606.4375 L 464.691406 558.007812 C 472.4375 539.355469 489.519531 527.777344 506.667969 527.777344 C 511.464844 527.777344 516.273438 528.6875 520.875 530.59375 C 542.675781 539.648438 567.832031 533.082031 584.972656 513.851562 C 602.332031 494.378906 626.519531 462.777344 643.148438 422.75 C 659.78125 382.710938 665.121094 343.269531 666.671875 317.238281 C 668.203125 291.53125 655.113281 269.0625 633.3125 260.003906 C 623.234375 255.820312 615.550781 247.441406 611.695312 236.429688 C 607.75 225.164062 608.25 212.53125 613.101562 200.851562 L 633.230469 152.421875 C 638.082031 140.734375 646.683594 131.464844 657.453125 126.3125 C 667.980469 121.28125 679.324219 120.804688 689.414062 125.003906 L 733.601562 143.367188 C 757.238281 153.183594 774.703125 173.769531 781.515625 199.851562 C 793.734375 246.628906 796.6875 330.351562 741.34375 463.546875 Z M 741.34375 463.546875 "/><path style=" stroke:none;fill-rule:nonzero;fill:#ffffff;fill-opacity:1;" d="M 378.914062 536.988281 C 375.402344 536.988281 372.550781 539.832031 372.550781 543.351562 L 372.550781 596.84375 L 291.054688 528.058594 C 289.910156 527.089844 288.453125 526.554688 286.953125 526.554688 L 47.183594 526.554688 C 28.179688 526.550781 12.722656 511.097656 12.722656 492.089844 L 12.722656 249.820312 C 12.722656 230.820312 28.179688 215.359375 47.183594 215.359375 L 231.511719 215.359375 C 235.023438 215.359375 237.871094 212.515625 237.871094 209 C 237.871094 205.480469 235.023438 202.636719 231.511719 202.636719 L 47.183594 202.636719 C 21.164062 202.636719 0 223.800781 0 249.820312 L 0 492.09375 C 0 518.113281 21.164062 539.277344 47.183594 539.277344 L 284.628906 539.277344 L 374.808594 615.398438 C 375.980469 616.390625 377.441406 616.902344 378.914062 616.902344 C 379.820312 616.902344 380.738281 616.710938 381.589844 616.308594 C 383.835938 615.265625 385.273438 613.015625 385.273438 610.539062 L 385.273438 543.351562 C 385.273438 539.832031 382.421875 536.988281 378.914062 536.988281 Z M 378.914062 536.988281 "/><path style=" stroke:none;fill-rule:nonzero;fill:#ffffff;fill-opacity:1;" d="M 177.988281 297.925781 C 181.496094 297.925781 184.347656 295.082031 184.347656 291.5625 C 184.347656 288.046875 181.496094 285.203125 177.988281 285.203125 L 80.179688 285.203125 C 76.667969 285.203125 73.816406 288.046875 73.816406 291.5625 C 73.816406 295.082031 76.667969 297.925781 80.179688 297.925781 Z M 177.988281 297.925781 "/><path style=" stroke:none;fill-rule:nonzero;fill:#ffffff;fill-opacity:1;" d="M 38.589844 386.800781 C 38.589844 390.320312 41.4375 393.164062 44.949219 393.164062 L 192.628906 393.164062 C 196.140625 393.164062 198.992188 390.320312 198.992188 386.800781 C 198.992188 383.285156 196.140625 380.441406 192.628906 380.441406 L 44.949219 380.441406 C 41.4375 380.441406 38.589844 383.285156 38.589844 386.800781 Z M 38.589844 386.800781 "/></g></svg>