<svg xmlns="http://www.w3.org/2000/svg" xmlns:xlink="http://www.w3.org/1999/xlink" width="1080" zoomAndPan="magnify" viewBox="0 0 810 809.999993" height="1080" preserveAspectRatio="xMidYMid meet" version="1.2"><defs><clipPath id="b316f9537a"><path d="M 125 111.375 L 503 111.375 L 503 570 L 125 570 Z M 125 111.375 "/></clipPath></defs><g id="4daa9556df"><path style=" stroke:none;fill-rule:nonzero;fill:#51ade5;fill-opacity:1;" d="M 373.789062 672.5 C 398.8125 669.214844 422.632812 646.867188 423.078125 646.453125 C 423.027344 646.617188 423.867188 648.210938 446.371094 663.605469 C 473.402344 682.09375 497.941406 654.492188 497.941406 654.492188 C 534.742188 677.390625 560.007812 666.5625 560.007812 666.5625 C 537.625 681.09375 505.78125 671.484375 505.78125 671.484375 C 457.019531 698.960938 424.046875 666.082031 424.046875 666.082031 C 403.574219 675.847656 373.789062 672.5 373.789062 672.5 Z M 191.519531 650.882812 C 207.089844 684.898438 229.441406 715.160156 256.835938 739.933594 C 335.492188 727.320312 365.878906 691.523438 365.878906 691.523438 C 365.878906 691.523438 388.667969 731.15625 442.539062 730.78125 C 496.40625 730.402344 508.289062 691.523438 508.289062 691.523438 C 508.289062 691.523438 527.484375 716.644531 577.210938 728.84375 C 609.15625 736.6875 646.617188 716.824219 657.554688 701.699219 L 657.570312 701.675781 C 638.453125 696.976562 625.035156 691.988281 625.035156 691.988281 C 586.691406 715.042969 546.367188 698.277344 546.367188 698.277344 C 586.808594 705.546875 620.433594 655.070312 620.433594 655.070312 C 620.433594 655.070312 635.035156 673.683594 667.449219 687.695312 C 695.929688 644.585938 712.519531 592.917969 712.519531 537.371094 C 712.519531 476.042969 692.296875 419.4375 658.171875 373.859375 C 653.503906 377.167969 648.09375 381.589844 641.253906 388.964844 C 585.402344 449.246094 505.589844 508.671875 443.304688 547.621094 C 358.105469 600.90625 268.71875 635.460938 191.519531 650.882812 Z M 262.683594 745.070312 C 310.332031 785.761719 372.144531 810.335938 439.699219 810.335938 C 498.839844 810.335938 553.589844 791.5 598.285156 759.503906 C 550.625 760.65625 517.320312 733.527344 517.320312 733.527344 C 442.671875 787.097656 365.878906 731.15625 365.878906 731.15625 C 312.757812 745.988281 280.265625 746.816406 262.683594 745.070312 "/><path style=" stroke:none;fill-rule:nonzero;fill:#3871c1;fill-opacity:1;" d="M 443.304688 547.621094 C 505.589844 508.671875 585.402344 449.246094 641.253906 388.964844 C 648.09375 381.589844 653.503906 377.167969 658.171875 373.859375 C 659.472656 375.601562 660.75 377.363281 662.011719 379.132812 C 628.820312 430.273438 564.570312 517.738281 473.613281 589.648438 C 392.949219 653.40625 309.863281 699.136719 239.226562 722.503906 C 219.777344 701.429688 203.605469 677.289062 191.519531 650.882812 C 268.71875 635.460938 358.105469 600.90625 443.304688 547.621094 "/><path style=" stroke:none;fill-rule:nonzero;fill:#f68712;fill-opacity:1;" d="M 631.179688 342.945312 C 602.117188 374.695312 547.988281 427.371094 471.941406 474.621094 C 407.136719 514.875 339.503906 545.15625 280.570312 561.292969 C 268.140625 564.691406 256.101562 567.464844 244.558594 569.566406 C 227.140625 572.742188 210.851562 574.398438 196.058594 574.398438 C 186.019531 574.398438 176.984375 573.628906 169.074219 572.144531 C 167.628906 560.761719 166.882812 549.152344 166.882812 537.371094 C 166.882812 438.1875 219.753906 351.355469 298.839844 303.5625 C 323.179688 288.847656 350.015625 277.828125 378.550781 271.292969 C 378.703125 271.253906 378.84375 271.21875 378.996094 271.195312 C 386.414062 269.503906 393.949219 268.117188 401.585938 267.050781 C 402.648438 266.902344 403.710938 266.761719 404.777344 266.621094 C 412.324219 265.65625 419.964844 265.003906 427.695312 264.667969 C 428.191406 264.648438 428.6875 264.625 429.183594 264.609375 C 432.679688 264.472656 436.179688 264.40625 439.699219 264.40625 C 453.566406 264.40625 467.1875 265.4375 480.496094 267.441406 C 538.808594 276.1875 591.082031 303.40625 631.179688 342.945312 "/><path style=" stroke:none;fill-rule:nonzero;fill:#2c3892;fill-opacity:1;" d="M 777.34375 229.476562 C 798.527344 196.992188 809.972656 168.144531 803.144531 163.492188 C 796.320312 158.832031 773.652344 180.019531 751.148438 211.597656 L 664.707031 212.257812 L 650.859375 232.554688 L 718.632812 262.242188 C 709.90625 276.636719 700.871094 292.058594 692.964844 306.261719 L 648.777344 303.941406 L 642.152344 313.660156 L 679.953125 330.621094 C 679.285156 331.953125 611.132812 422.640625 487.382812 499.515625 C 320.003906 603.5 151.5 634.953125 110.960938 569.660156 C 82.867188 524.421875 123.609375 444.617188 206.960938 365.261719 C 73.613281 468.632812 0.0625 584.59375 37.480469 644.851562 C 82.085938 716.683594 267.820312 682.625 451.644531 567.671875 C 600.292969 474.707031 692.148438 339.667969 692.546875 339.21875 L 708.476562 361.3125 L 715.101562 351.597656 L 710.472656 318.214844 C 720.804688 305.664062 731.863281 291.621094 742.074219 278.242188 L 757.175781 324.371094 L 771.019531 304.066406 L 777.34375 229.476562 "/><g clip-rule="nonzero" clip-path="url(#b316f9537a)"><path style=" stroke:none;fill-rule:nonzero;fill:#24265d;fill-opacity:1;" d="M 436.375 270.484375 C 445.089844 277.992188 455.667969 282.929688 466.953125 285.105469 C 478.917969 287.410156 490.082031 291.03125 502.378906 296.878906 C 502.378906 296.878906 494.925781 282.777344 480.496094 267.441406 C 458.964844 244.539062 421.878906 218.886719 370.851562 233.316406 C 371.59375 232.839844 372.347656 232.367188 373.109375 231.886719 C 369.433594 230.425781 365.160156 229.230469 360.339844 228.695312 C 360.339844 228.695312 362.878906 227.929688 367.0625 227.886719 C 374.96875 227.796875 382.746094 225.859375 389.660156 222.039062 L 389.894531 221.910156 C 385.726562 220 383.445312 216.820312 377.558594 216.160156 C 377.558594 216.160156 380.949219 215.144531 386.34375 215.390625 C 395.289062 215.796875 404.21875 214.136719 412.289062 210.25 C 412.742188 210.03125 413.199219 209.816406 413.652344 209.597656 C 409.132812 207.265625 403.347656 205.148438 396.4375 204.386719 C 396.4375 204.386719 401.207031 202.800781 407.867188 202.828125 C 421.109375 202.894531 434.214844 200.164062 446.503906 195.222656 C 447.015625 195.015625 447.503906 194.824219 447.960938 194.640625 C 437.179688 191.414062 422.710938 188.164062 415.71875 187.386719 C 415.71875 187.386719 450.140625 183.796875 475.554688 186.328125 C 475.554688 186.328125 389.773438 127.121094 341.351562 235.09375 C 349.394531 208.132812 351.75 161.195312 308.945312 131.996094 C 288.859375 118.300781 261.296875 111.359375 261.296875 111.359375 C 268.910156 118.859375 306.417969 163.199219 309.75 169.980469 C 309.46875 169.765625 300.242188 162.9375 289.417969 158.382812 C 289.582031 158.902344 289.75 159.414062 289.914062 159.933594 C 292.839844 169.320312 310.574219 190.957031 312.605469 195.09375 C 312.605469 195.09375 305.144531 189.527344 295.714844 185.042969 C 297.921875 198.664062 304.242188 213.257812 304.804688 225.566406 C 261.632812 141.511719 167.3125 167.625 167.3125 167.625 C 198.328125 170.933594 238.589844 183.792969 238.589844 183.792969 C 230.046875 182.976562 211.933594 183.269531 198.242188 184.4375 C 198.699219 184.742188 199.183594 185.0625 199.695312 185.40625 C 213.238281 194.417969 228.320312 200.964844 244.25 204.238281 C 252.167969 205.871094 257.421875 208.921875 257.421875 208.921875 C 248.964844 208.117188 241.527344 209.207031 235.539062 210.863281 L 236.253906 211.40625 C 245.304688 218.292969 255.9375 222.753906 267.148438 224.660156 C 273.417969 225.734375 277.066406 227.707031 277.066406 227.707031 C 269.867188 227.027344 266.347656 230.261719 260.882812 231.507812 C 261.128906 231.722656 261.363281 231.921875 261.597656 232.121094 C 263.5625 233.8125 265.632812 235.347656 267.800781 236.726562 C 154.980469 200.234375 125.605469 281.953125 125.605469 281.953125 C 150.960938 264.304688 189.304688 247.804688 190.050781 247.488281 C 183.058594 252.476562 169.566406 264.550781 159.988281 274.402344 C 160.074219 274.390625 160.164062 274.378906 160.253906 274.367188 C 177.277344 272.105469 193.679688 266.621094 208.871094 258.601562 C 215.402344 255.152344 220.742188 254.136719 220.742188 254.136719 C 213.824219 259.070312 208.910156 264.769531 205.472656 269.941406 C 205.625 269.9375 205.773438 269.925781 205.921875 269.914062 C 217.464844 269.183594 228.601562 265.566406 238.507812 259.597656 C 243.71875 256.457031 247.632812 255.527344 247.871094 255.480469 C 241.992188 259.679688 241.453125 264.433594 238.140625 268.945312 L 238.367188 268.945312 C 247.921875 268.894531 257.359375 266.550781 265.714844 261.917969 C 270.234375 259.40625 273.496094 258.648438 273.691406 258.601562 C 268.871094 262.039062 265.027344 265.859375 261.972656 269.601562 C 266.472656 269.835938 270.769531 270.128906 274.847656 270.457031 C 212.632812 285.777344 212.992188 357.960938 212.992188 357.960938 C 216.664062 350.234375 221.410156 343.554688 226.855469 337.730469 C 229.539062 323.570312 235.226562 312.484375 235.226562 312.484375 C 233.976562 319.59375 236.667969 335.953125 236.710938 335.914062 C 245.664062 328.054688 249.488281 313.796875 254.113281 302.820312 C 255.300781 299.984375 256.148438 298.34375 256.148438 298.34375 C 254.921875 305.269531 254.347656 311.460938 254.207031 316.929688 C 254.277344 316.890625 254.347656 316.851562 254.414062 316.816406 C 266.199219 310.238281 275.617188 300.089844 281.027344 287.71875 C 281.929688 285.648438 280.632812 298.753906 280.570312 304.59375 C 296.550781 289.867188 306.402344 294.011719 306.402344 294.011719 C 304.03125 296.832031 301.488281 300.007812 298.839844 303.5625 C 269.984375 342.261719 227.976562 425.441406 244.558594 569.566406 C 256.101562 567.464844 268.140625 564.691406 280.570312 561.292969 C 267.046875 504.863281 250.929688 388.792969 316.828125 302.601562 C 316.839844 303.238281 319.25 298.730469 321.363281 296.429688 C 321.757812 296.757812 317.109375 316.296875 316.820312 324.4375 L 316.8125 324.632812 C 320.695312 321.957031 324.710938 321.621094 328.40625 316.773438 C 328.355469 316.972656 327.472656 320.25 324.695312 324.5625 C 319.410156 332.765625 316.082031 342.070312 315.167969 351.785156 C 315.15625 351.902344 315.148438 352.019531 315.136719 352.136719 C 319.578125 349.375 324.5 345.386719 328.828125 339.6875 C 328.773438 339.953125 327.746094 344.324219 324.761719 349.585938 C 317.617188 362.175781 312.589844 375.855469 310.25 390.144531 C 310.238281 390.222656 310.226562 390.292969 310.214844 390.367188 C 318.753906 382.546875 329.269531 371.480469 333.652344 365.714844 C 333.347656 366.375 318.476562 398.242188 302.976562 419.152344 C 302.976562 419.152344 372.335938 388.53125 349.511719 300.984375 C 352.816406 314.136719 360.503906 325.746094 371.332031 333.902344 C 371.414062 333.964844 371.503906 334.027344 371.589844 334.09375 C 372.792969 329.269531 373.257812 316.582031 373.480469 310.578125 C 373.480469 310.578125 387.441406 327.441406 393.085938 351.507812 L 393.253906 351.660156 C 394.375 347.003906 395.839844 334.546875 396.058594 328.839844 C 396.058594 328.839844 406.371094 349.828125 423.316406 395.265625 C 423.316406 395.265625 444.179688 317.074219 384.140625 274.613281 C 392.101562 278.742188 400.996094 280.871094 410.03125 280.808594 L 410.289062 280.804688 C 408.945312 277.6875 401.640625 269.386719 400.539062 267.820312 C 400.539062 267.820312 427.023438 280.820312 437.851562 281.585938 L 438.160156 281.605469 C 436.527344 277.902344 428.929688 266.164062 428.425781 265.449219 C 428.425781 265.449219 433.667969 268.152344 436.375 270.484375 "/></g></g></svg>